<?xml version="1.0" encoding="iso-8859-1"?>
<!-- Uploaded to: SVG Repo, www.svgrepo.com, Generator: SVG Repo Mixer Tools -->
<svg height="800px" width="800px" version="1.1" id="Layer_1" xmlns="http://www.w3.org/2000/svg" xmlns:xlink="http://www.w3.org/1999/xlink"
	 viewBox="0 0 512 512" xml:space="preserve">
<polygon style="fill:#EEEEEE;" points="449.362,8.17 449.362,394.894 374.116,449.362 416.681,8.17 "/>
<polygon style="fill:#FFFFFF;" points="416.681,8.17 416.681,394.894 340.426,503.83 62.638,503.83 62.638,8.17 "/>
<polygon style="fill:#B9B9B9;" points="449.362,394.894 340.426,503.83 340.426,394.894 "/>
<path d="M449.362,0H62.638c-4.513,0-8.17,3.658-8.17,8.17v495.66c0,3.095,1.748,5.924,4.516,7.307C60.709,512,60.709,512,73.17,512
	h234.574c4.513,0,8.17-3.658,8.17-8.17s-3.657-8.17-8.17-8.17c-2.178,0-194.62,0-236.936,0V16.34h370.383v370.383H340.426
	c-4.513,0-8.17,3.658-8.17,8.17V503.83c0,3.305,1.99,6.283,5.044,7.548c1.011,0.418,2.072,0.622,3.124,0.622
	c2.126,0,4.216-0.83,5.78-2.393L455.14,400.671c1.51-1.556,2.386-3.551,2.392-5.752V8.17C457.532,3.658,453.875,0,449.362,0z
	 M348.596,484.106v-81.042h81.042L348.596,484.106z"/>
<path d="M149.243,220.596h213.515c4.513,0,8.17-3.658,8.17-8.17s-3.657-8.17-8.17-8.17H149.243c-4.513,0-8.17,3.658-8.17,8.17
	S144.729,220.596,149.243,220.596z"/>
<path d="M149.243,177.021h213.515c4.513,0,8.17-3.658,8.17-8.17s-3.657-8.17-8.17-8.17H149.243c-4.513,0-8.17,3.658-8.17,8.17
	S144.729,177.021,149.243,177.021z"/>
<path d="M149.243,133.447h213.515c4.513,0,8.17-3.658,8.17-8.17c0-4.512-3.657-8.17-8.17-8.17H149.243
	c-4.513,0-8.17,3.658-8.17,8.17C141.072,129.789,144.729,133.447,149.243,133.447z"/>
<path d="M370.928,256c0-4.512-3.657-8.17-8.17-8.17H149.243c-4.513,0-8.17,3.658-8.17,8.17s3.657,8.17,8.17,8.17h213.515
	C367.271,264.17,370.928,260.512,370.928,256z"/>
<path d="M149.243,291.404c-4.513,0-8.17,3.658-8.17,8.17c0,4.512,3.657,8.17,8.17,8.17h131.813c4.513,0,8.17-3.658,8.17-8.17
	c0-4.512-3.657-8.17-8.17-8.17H149.243z"/>
</svg>